# xmcd
#
# Track frame offsets:
#	150
#	24416
#	44876
#	69574
#	84960
#	106446
#	125773
#	141483
#	166019
#	191446
#	209774
#	234931
#	257659
#	273045
#	294720
#
# Disc length: 4315 seconds
#
# Revision: 1
# Processed by: cddbd v1.4PL0 Copyright (c) Steve Scherf et al.
# Submitted via: EasyCDDAExtractor 5.0.2.1
#
DISCID=df10d90f
DTITLE=Cantores Estrangeiros - oOo
DYEAR=1900
DGENRE=Balada
TTITLE0=Phil Collins - Another Day In Paradise
TTITLE1=Phil Collins - True Colors
TTITLE2=Phil Collins - I Wish It World Rain Down
TTITLE3=Phil Collins - Against All Odds
TTITLE4=Phil Collins - One More Night
TTITLE5=Phil Collins - You'll Be In My Heart
TTITLE6=Phil Collins - A Groove Kind Of Love
TTITLE7=Phil Collins - In The Air Tonight
TTITLE8=Phil Collins - Everyday
TTITLE9=Phil Collins - Separate Lives
TTITLE10=Phil Collins - Do You Remember
TTITLE11=Phil Collins - Easy Lover
TTITLE12=Phil Collins - Two Hearts
TTITLE13=Phil Collins - Something Happened On The Way To Heaven
TTITLE14=Phil Collins - Both Sides Of Story
EXTD=
EXTT0=
EXTT1=
EXTT2=
EXTT3=
EXTT4=
EXTT5=
EXTT6=
EXTT7=
EXTT8=
EXTT9=
EXTT10=
EXTT11=
EXTT12=
EXTT13=
EXTT14=
PLAYORDER=
